<svg width="48" height="48" viewBox="0 0 48 48" fill="none" xmlns="http://www.w3.org/2000/svg">
<mask id="mask0_2353_224" style="mask-type:alpha" maskUnits="userSpaceOnUse" x="0" y="0" width="48" height="48">
<rect width="48" height="48" fill="#D9D9D9"/>
</mask>
<g mask="url(#mask0_2353_224)">
<path d="M38.9498 41.5754L26.5508 29.1754C25.5668 29.9754 24.4331 30.5962 23.1498 31.0379C21.8665 31.4796 20.5108 31.7004 19.0828 31.7004C15.5451 31.7004 12.551 30.4762 10.1003 28.0279C7.64997 25.5792 6.4248 22.5876 6.4248 19.0529C6.4248 15.5179 7.64897 12.5254 10.0973 10.0754C12.546 7.62539 15.5376 6.40039 19.0723 6.40039C22.6073 6.40039 25.5998 7.62556 28.0498 10.0759C30.4998 12.5266 31.7248 15.5207 31.7248 19.0584C31.7248 20.4864 31.4998 21.8462 31.0498 23.1379C30.5998 24.4296 29.9831 25.5671 29.1998 26.5504L41.5998 38.9254L38.9498 41.5754ZM19.0748 27.9504C21.5581 27.9504 23.6623 27.0879 25.3873 25.3629C27.1123 23.6379 27.9748 21.5337 27.9748 19.0504C27.9748 16.5671 27.1123 14.4629 25.3873 12.7379C23.6623 11.0129 21.5581 10.1504 19.0748 10.1504C16.5915 10.1504 14.4873 11.0129 12.7623 12.7379C11.0373 14.4629 10.1748 16.5671 10.1748 19.0504C10.1748 21.5337 11.0373 23.6379 12.7623 25.3629C14.4873 27.0879 16.5915 27.9504 19.0748 27.9504Z" fill="#FCF7E6"/>
</g>
</svg>
