<svg width="48" height="48" viewBox="0 0 48 48" fill="none" xmlns="http://www.w3.org/2000/svg">
<mask id="mask0_2353_239" style="mask-type:alpha" maskUnits="userSpaceOnUse" x="0" y="0" width="48" height="48">
<rect width="48" height="48" fill="#D9D9D9"/>
</mask>
<g mask="url(#mask0_2353_239)">
<path d="M11.975 34.175C13.7083 32.8917 15.5792 31.8917 17.5875 31.175C19.5958 30.4583 21.7333 30.1 24 30.1C26.2667 30.1 28.4042 30.4583 30.4125 31.175C32.4208 31.8917 34.2917 32.8917 36.025 34.175C37.2417 32.7583 38.1667 31.1935 38.8 29.4805C39.4333 27.7678 39.75 25.9398 39.75 23.9965C39.75 19.6155 38.2208 15.8958 35.1625 12.8375C32.1042 9.77917 28.3833 8.25 24 8.25C19.6167 8.25 15.8958 9.77917 12.8375 12.8375C9.77917 15.8958 8.25 19.6155 8.25 23.9965C8.25 25.9398 8.56667 27.7678 9.2 29.4805C9.83333 31.1935 10.7583 32.7583 11.975 34.175ZM24.0055 25.9C22.0685 25.9 20.4333 25.2352 19.1 23.9055C17.7667 22.5758 17.1 20.9425 17.1 19.0055C17.1 17.0685 17.7648 15.4333 19.0945 14.1C20.4242 12.7667 22.0575 12.1 23.9945 12.1C25.9315 12.1 27.5667 12.7648 28.9 14.0945C30.2333 15.4242 30.9 17.0575 30.9 18.9945C30.9 20.9315 30.2352 22.5667 28.9055 23.9C27.5758 25.2333 25.9425 25.9 24.0055 25.9ZM24 43.5C21.303 43.5 18.7685 42.9873 16.3965 41.962C14.0248 40.9363 11.9617 39.5447 10.207 37.787C8.45233 36.029 7.0625 33.9652 6.0375 31.5955C5.0125 29.2262 4.5 26.6943 4.5 24C4.5 21.303 5.01267 18.7685 6.038 16.3965C7.06367 14.0248 8.45533 11.9617 10.213 10.207C11.971 8.45233 14.0348 7.0625 16.4045 6.0375C18.7738 5.0125 21.3057 4.5 24 4.5C26.697 4.5 29.2315 5.01267 31.6035 6.038C33.9752 7.06367 36.0383 8.45533 37.793 10.213C39.5477 11.971 40.9375 14.0348 41.9625 16.4045C42.9875 18.7738 43.5 21.3057 43.5 24C43.5 26.697 42.9873 29.2315 41.962 31.6035C40.9363 33.9752 39.5447 36.0383 37.787 37.793C36.029 39.5477 33.9652 40.9375 31.5955 41.9625C29.2262 42.9875 26.6943 43.5 24 43.5ZM24 39.75C25.7333 39.75 27.3625 39.5 28.8875 39C30.4125 38.5 31.85 37.7667 33.2 36.8C31.85 35.85 30.4125 35.1208 28.8875 34.6125C27.3625 34.1042 25.7343 33.85 24.003 33.85C22.2717 33.85 20.6383 34.1 19.103 34.6C17.5677 35.1 16.1333 35.8333 14.8 36.8C16.15 37.7667 17.5875 38.5 19.1125 39C20.6375 39.5 22.2667 39.75 24 39.75ZM24 22.15C24.8833 22.15 25.6292 21.8458 26.2375 21.2375C26.8458 20.6292 27.15 19.8833 27.15 19C27.15 18.1167 26.8458 17.3708 26.2375 16.7625C25.6292 16.1542 24.8833 15.85 24 15.85C23.1167 15.85 22.3708 16.1542 21.7625 16.7625C21.1542 17.3708 20.85 18.1167 20.85 19C20.85 19.8833 21.1542 20.6292 21.7625 21.2375C22.3708 21.8458 23.1167 22.15 24 22.15Z" fill="#FCF7E6"/>
</g>
</svg>
