<svg width="48" height="48" viewBox="0 0 48 48" fill="none" xmlns="http://www.w3.org/2000/svg">
<mask id="mask0_2353_229" style="mask-type:alpha" maskUnits="userSpaceOnUse" x="0" y="0" width="48" height="48">
<rect width="48" height="48" fill="#D9D9D9"/>
</mask>
<g mask="url(#mask0_2353_229)">
<path d="M14.2 43.5004C13.1413 43.5004 12.235 43.1234 11.481 42.3694C10.727 41.6154 10.35 40.7091 10.35 39.6504C10.35 38.5917 10.727 37.6854 11.481 36.9314C12.235 36.1774 13.1413 35.8004 14.2 35.8004C15.2587 35.8004 16.165 36.1774 16.919 36.9314C17.673 37.6854 18.05 38.5917 18.05 39.6504C18.05 40.7091 17.673 41.6154 16.919 42.3694C16.165 43.1234 15.2587 43.5004 14.2 43.5004ZM33.75 43.5004C32.6913 43.5004 31.785 43.1234 31.031 42.3694C30.277 41.6154 29.9 40.7091 29.9 39.6504C29.9 38.5917 30.277 37.6854 31.031 36.9314C31.785 36.1774 32.6913 35.8004 33.75 35.8004C34.8087 35.8004 35.715 36.1774 36.469 36.9314C37.223 37.6854 37.6 38.5917 37.6 39.6504C37.6 40.7091 37.223 41.6154 36.469 42.3694C35.715 43.1234 34.8087 43.5004 33.75 43.5004ZM12.4 12.0504L17.2 22.0504H30.95L36.45 12.0504H12.4ZM10.606 8.30039H39.425C40.1917 8.30039 40.7667 8.63106 41.15 9.29239C41.5333 9.95373 41.5417 10.6231 41.175 11.3004L34.275 23.7504C33.9417 24.4004 33.4708 24.9046 32.8625 25.2629C32.2542 25.6212 31.6 25.8004 30.9 25.8004H16.3L14.05 29.9004H37.6V33.6504H14.2095C12.7475 33.6504 11.643 33.0212 10.896 31.7629C10.1487 30.5046 10.1167 29.2504 10.8 28.0004L13.5 23.1614L6.406 8.15039H2.5V4.40039H8.75L10.606 8.30039Z" fill="#FCF7E6"/>
</g>
</svg>