<svg width="48" height="48" viewBox="0 0 48 48" fill="none" xmlns="http://www.w3.org/2000/svg">
<mask id="mask0_2353_234" style="mask-type:alpha" maskUnits="userSpaceOnUse" x="0" y="0" width="48" height="48">
<rect width="48" height="48" fill="#D9D9D9"/>
</mask>
<g mask="url(#mask0_2353_234)">
<path d="M24 41.4502L21.3 39.0252C17.991 36.0395 15.2555 33.4639 13.0935 31.2982C10.9312 29.1329 9.212 27.1935 7.936 25.4802C6.65967 23.7669 5.768 22.1922 5.261 20.7562C4.75367 19.3202 4.5 17.8515 4.5 16.3502C4.5 13.3165 5.51667 10.7832 7.55 8.7502C9.583 6.71686 12.1163 5.7002 15.15 5.7002C16.8597 5.7002 18.487 6.06686 20.032 6.8002C21.5773 7.53353 22.9 8.58353 24 9.9502C25.15 8.58353 26.4833 7.53353 28 6.8002C29.5167 6.06686 31.1333 5.7002 32.85 5.7002C35.8837 5.7002 38.417 6.71686 40.45 8.7502C42.4833 10.7832 43.5 13.3165 43.5 16.3502C43.5 17.8515 43.2463 19.3202 42.739 20.7562C42.232 22.1922 41.3403 23.7669 40.064 25.4802C38.788 27.1935 37.0688 29.1329 34.9065 31.2982C32.7445 33.4639 30.009 36.0395 26.7 39.0252L24 41.4502ZM24 36.4002C27.1333 33.5669 29.7167 31.1419 31.75 29.1252C33.7833 27.1085 35.3917 25.3502 36.575 23.8502C37.7583 22.3502 38.5833 21.0139 39.05 19.8412C39.5167 18.6685 39.75 17.5042 39.75 16.3482C39.75 14.3662 39.094 12.721 37.782 11.4127C36.47 10.1044 34.8302 9.4502 32.8625 9.4502C31.3208 9.4502 29.8875 9.89186 28.5625 10.7752C27.2375 11.6585 26.3 12.8085 25.75 14.2252H22.25C21.7 12.8085 20.7625 11.6585 19.4375 10.7752C18.1125 9.89186 16.6792 9.4502 15.1375 9.4502C13.1698 9.4502 11.53 10.1044 10.218 11.4127C8.906 12.721 8.25 14.3662 8.25 16.3482C8.25 17.5042 8.48333 18.6685 8.95 19.8412C9.41667 21.0139 10.2417 22.3502 11.425 23.8502C12.6083 25.3502 14.2167 27.1085 16.25 29.1252C18.2833 31.1419 20.8667 33.5669 24 36.4002Z" fill="#FCF7E6"/>
</g>
</svg>
