<svg width="145" height="90" viewBox="0 0 145 90" fill="none" xmlns="http://www.w3.org/2000/svg">
<path d="M62.6033 32.0454L51.8341 58.0225H44.8081L39.5085 37.2916C39.1868 36.0147 38.907 35.5469 37.9285 35.0089C36.331 34.1327 33.6928 33.3106 31.3716 32.8004L31.5292 32.0454H42.8391C44.2807 32.0454 45.5767 33.0156 45.904 34.6941L48.7028 49.7257L55.6201 32.045H62.6033V32.0454ZM90.1326 49.5412C90.1609 42.6851 80.7554 42.3074 80.8201 39.2446C80.8402 38.3125 81.7181 37.3215 83.6395 37.0685C84.5919 36.9425 87.2159 36.8463 90.1922 38.2311L91.3596 32.7224C89.7603 32.1355 87.7026 31.5707 85.1424 31.5707C78.5726 31.5707 73.9491 35.1016 73.9101 40.1577C73.8677 43.8974 77.2102 45.9843 79.7285 47.227C82.3191 48.4995 83.1884 49.3173 83.1785 50.4556C83.1601 52.1981 81.1123 52.9674 79.1985 52.9977C75.8577 53.0497 73.9191 52.0838 72.3738 51.3574L71.1691 57.0484C72.7221 57.7687 75.5887 58.3972 78.5606 58.4288C85.5434 58.4288 90.1112 54.9416 90.1326 49.5412ZM107.481 58.0225H113.628L108.262 32.0454H102.588C101.313 32.0454 100.236 32.7965 99.76 33.9512L89.786 58.0225H96.7654L98.1509 54.1425H106.679L107.481 58.0225ZM100.065 48.8183L103.563 39.0649L105.577 48.8183H100.065ZM72.1001 32.0454L66.6039 58.0225H59.9574L65.4557 32.0454H72.1001Z" fill="#1434CB"/>
</svg>
