<svg width="58" height="45" viewBox="0 0 58 45" fill="none" xmlns="http://www.w3.org/2000/svg">
<path d="M57.1535 35.1386C57.1535 40.0484 53.173 44.0293 48.263 44.0293H0V8.88998C0 3.98002 3.98055 -0.000493821 8.89109 -0.000493821H57.1535V35.1386Z" fill="white"/>
<mask id="mask0_2353_373" style="mask-type:luminance" maskUnits="userSpaceOnUse" x="41" y="22" width="6" height="5">
<path d="M41.4175 26.1366H45.0933C45.2089 26.1366 45.4276 26.1183 45.5317 26.0954C46.2373 25.9428 46.825 25.3163 46.825 24.463C46.825 23.6094 46.2373 22.9814 45.5317 22.8287C45.4276 22.8059 45.2089 22.7873 45.0933 22.7873H41.4175V26.1366Z" fill="white"/>
</mask>
<g mask="url(#mask0_2353_373)">
<path d="M41.4175 26.1366H45.0933C45.2089 26.1366 45.4276 26.1183 45.5317 26.0954C46.2373 25.9428 46.825 25.3163 46.825 24.463C46.825 23.6094 46.2373 22.9814 45.5317 22.8287C45.4276 22.8059 45.2089 22.7873 45.0933 22.7873H41.4175V26.1366Z" fill="url(#paint0_linear_2353_373)"/>
</g>
<mask id="mask1_2353_373" style="mask-type:luminance" maskUnits="userSpaceOnUse" x="38" y="2" width="16" height="40">
<path d="M44.664 2.96208C41.157 2.96208 38.3135 5.80543 38.3135 9.31209V15.908H47.2993C47.5076 15.908 47.7624 15.9225 47.9214 15.9308C49.9548 16.0327 51.4547 17.0774 51.4547 18.8904C51.4547 20.316 50.4296 21.5332 48.5641 21.8074V21.8789C50.6249 22.022 52.2026 23.1559 52.2026 24.9431C52.2026 26.876 50.4708 28.1188 48.1624 28.1188H38.3135V41.0645H47.6278C51.1348 41.0645 53.9782 38.2211 53.9782 34.7141V2.96208H44.664Z" fill="white"/>
</mask>
<g mask="url(#mask1_2353_373)">
<path d="M44.664 2.96208C41.157 2.96208 38.3135 5.80543 38.3135 9.31209V15.908H47.2993C47.5076 15.908 47.7624 15.9225 47.9214 15.9308C49.9548 16.0327 51.4547 17.0774 51.4547 18.8904C51.4547 20.316 50.4296 21.5332 48.5641 21.8074V21.8789C50.6249 22.022 52.2026 23.1559 52.2026 24.9431C52.2026 26.876 50.4708 28.1188 48.1624 28.1188H38.3135V41.0645H47.6278C51.1348 41.0645 53.9782 38.2211 53.9782 34.7141V2.96208H44.664Z" fill="url(#paint1_linear_2353_373)"/>
</g>
<mask id="mask2_2353_373" style="mask-type:luminance" maskUnits="userSpaceOnUse" x="41" y="17" width="6" height="4">
<path d="M46.3906 19.3498C46.3906 18.5108 45.8029 17.9484 45.112 17.8316C45.0475 17.8207 44.8715 17.8036 44.7504 17.8036H41.4185V20.8954H44.7504C44.8715 20.8954 45.0475 20.878 45.112 20.8669C45.8029 20.75 46.3906 20.188 46.3906 19.3498Z" fill="white"/>
</mask>
<g mask="url(#mask2_2353_373)">
<path d="M46.3906 19.3498C46.3906 18.5108 45.8029 17.9484 45.112 17.8316C45.0475 17.8207 44.8715 17.8036 44.7504 17.8036H41.4185V20.8954H44.7504C44.8715 20.8954 45.0475 20.878 45.112 20.8669C45.8029 20.75 46.3906 20.188 46.3906 19.3498Z" fill="url(#paint2_linear_2353_373)"/>
</g>
<mask id="mask3_2353_373" style="mask-type:luminance" maskUnits="userSpaceOnUse" x="3" y="2" width="16" height="40">
<path d="M9.52577 2.96208C6.01834 2.96208 3.17529 5.80543 3.17529 9.31209V24.9949C4.95631 25.8577 6.79627 26.4197 8.669 26.4197C10.8647 26.4197 12.0708 25.0795 12.0708 23.276V15.9084H17.5326V23.276C17.5326 26.1577 15.7637 28.4689 9.69358 28.4689C6.04039 28.4689 3.17529 27.6813 3.17529 27.6813V41.0645H12.4891C15.9963 41.0645 18.8396 38.2211 18.8396 34.7141V2.96208H9.52577Z" fill="white"/>
</mask>
<g mask="url(#mask3_2353_373)">
<path d="M9.52577 2.96208C6.01834 2.96208 3.17529 5.80543 3.17529 9.31209V24.9949C4.95631 25.8577 6.79627 26.4197 8.669 26.4197C10.8647 26.4197 12.0708 25.0795 12.0708 23.276V15.9084H17.5326V23.276C17.5326 26.1577 15.7637 28.4689 9.69358 28.4689C6.04039 28.4689 3.17529 27.6813 3.17529 27.6813V41.0645H12.4891C15.9963 41.0645 18.8396 38.2211 18.8396 34.7141V2.96208H9.52577Z" fill="url(#paint3_linear_2353_373)"/>
</g>
<mask id="mask4_2353_373" style="mask-type:luminance" maskUnits="userSpaceOnUse" x="20" y="2" width="17" height="40">
<path d="M27.095 2.96208C23.5876 2.96208 20.7446 5.80543 20.7446 9.31209V17.626C22.3537 16.2456 25.1361 15.3834 29.6568 15.587C32.0766 15.6947 34.6427 16.3437 34.6427 16.3437V19.0325C33.3584 18.3816 31.8182 17.7787 29.8337 17.6283C26.4028 17.3692 24.3382 19.0458 24.3382 22.0137C24.3382 24.9809 26.4028 26.6572 29.8337 26.3968C31.8182 26.2478 33.3787 25.6288 34.6427 24.9945V27.6818C34.6427 27.6818 32.0766 28.3306 29.6568 28.4404C25.1361 28.6439 22.3537 27.7816 20.7446 26.4012V41.0645H30.0586C33.5654 41.0645 36.4086 38.2211 36.4086 34.7141V2.96208H27.095Z" fill="white"/>
</mask>
<g mask="url(#mask4_2353_373)">
<path d="M27.095 2.96208C23.5876 2.96208 20.7446 5.80543 20.7446 9.31209V17.626C22.3537 16.2456 25.1361 15.3834 29.6568 15.587C32.0766 15.6947 34.6427 16.3437 34.6427 16.3437V19.0325C33.3584 18.3816 31.8182 17.7787 29.8337 17.6283C26.4028 17.3692 24.3382 19.0458 24.3382 22.0137C24.3382 24.9809 26.4028 26.6572 29.8337 26.3968C31.8182 26.2478 33.3787 25.6288 34.6427 24.9945V27.6818C34.6427 27.6818 32.0766 28.3306 29.6568 28.4404C25.1361 28.6439 22.3537 27.7816 20.7446 26.4012V41.0645H30.0586C33.5654 41.0645 36.4086 38.2211 36.4086 34.7141V2.96208H27.095Z" fill="url(#paint4_linear_2353_373)"/>
</g>
<defs>
<linearGradient id="paint0_linear_2353_373" x1="38.3135" y1="24.4619" x2="54.0184" y2="24.4619" gradientUnits="userSpaceOnUse">
<stop stop-color="#137F48"/>
<stop offset="1" stop-color="#5AC134"/>
</linearGradient>
<linearGradient id="paint1_linear_2353_373" x1="38.3135" y1="22.0134" x2="54.0187" y2="22.0134" gradientUnits="userSpaceOnUse">
<stop stop-color="#137F48"/>
<stop offset="1" stop-color="#5AC134"/>
</linearGradient>
<linearGradient id="paint2_linear_2353_373" x1="38.3142" y1="19.3496" x2="54.0185" y2="19.3496" gradientUnits="userSpaceOnUse">
<stop stop-color="#137F48"/>
<stop offset="1" stop-color="#5AC134"/>
</linearGradient>
<linearGradient id="paint3_linear_2353_373" x1="3.15495" y1="22.0134" x2="19.1027" y2="22.0134" gradientUnits="userSpaceOnUse">
<stop stop-color="#303377"/>
<stop offset="1" stop-color="#1576C5"/>
</linearGradient>
<linearGradient id="paint4_linear_2353_373" x1="20.6507" y1="22.0134" x2="36.1394" y2="22.0134" gradientUnits="userSpaceOnUse">
<stop stop-color="#6D2E33"/>
<stop offset="1" stop-color="#ED1443"/>
</linearGradient>
</defs>
</svg>
