<svg width="80" height="58" viewBox="0 0 80 58" fill="none" xmlns="http://www.w3.org/2000/svg">
<path d="M48.4005 14.2178H31.9478V43.7805H48.4005V14.2178Z" fill="#FF5F00"/>
<path d="M32.9926 28.9994C32.9926 23.254 35.6564 17.7697 40.1483 14.218C32.0002 7.79362 20.1438 9.20385 13.7194 17.4041C7.3472 25.5521 8.75743 37.3564 16.9577 43.7808C23.8 49.1606 33.3582 49.1606 40.2005 43.7808C35.6564 40.2291 32.9926 34.7448 32.9926 28.9994Z" fill="#EB001B"/>
<path d="M70.5986 28.9993C70.5986 39.3932 62.1894 47.8024 51.7955 47.8024C47.5648 47.8024 43.4907 46.3922 40.2002 43.7806C48.3482 37.3562 49.7585 25.552 43.3341 17.3518C42.3939 16.2027 41.3493 15.1058 40.2002 14.2179C48.3482 7.7935 60.2047 9.20373 66.5768 17.404C69.1884 20.6945 70.5986 24.7686 70.5986 28.9993Z" fill="#F79E1B"/>
</svg>
